<?xml version="1.0" encoding="utf-8"?>
<!-- Generator: Adobe Illustrator 24.0.0, SVG Export Plug-In . SVG Version: 6.00 Build 0)  -->
<svg version="1.1" id="Layer_1" xmlns="http://www.w3.org/2000/svg" xmlns:xlink="http://www.w3.org/1999/xlink" x="0px" y="0px"
	 viewBox="0 0 1670 608" style="enable-background:new 0 0 1670 608;" xml:space="preserve">
<style type="text/css">
	.st0{display:none;}
	.st1{display:inline;}
	.st2{fill:none;}
</style>
<g class="st0">
	<path class="st1" d="M475.1,729.4c0-1.3,0.4-2.3,1.1-3.1c0.7-0.7,1.6-1.1,2.6-1.2h89c1.4,0,2.5,0.4,3.2,1.2
		c0.7,0.8,1.1,1.9,1.1,3.2v23c0,1.1-0.4,2.1-1.1,3c-0.7,1-1.8,1.4-3.3,1.4h-56.5v28.8H553c1.2,0,2.2,0.3,3,1s1.2,1.7,1.2,3.1v22.4
		c0,1.1-0.4,2.1-1.1,3c-0.7,1-1.7,1.4-2.9,1.4h-41.9v42.6c0,2.7-1.4,4-4.3,4h-28.4c-2.2-0.3-3.3-1.6-3.3-3.9V729.4H475.1z"/>
	<path class="st1" d="M588.6,794.3c0-6.6,0.8-12.9,2.5-18.9s4.1-11.7,7.2-17s6.8-10.1,11.1-14.5c4.3-4.3,9.1-8,14.4-11.1
		c5.3-3.1,10.9-5.5,17-7.2c6-1.7,12.4-2.6,18.9-2.6s12.8,0.9,18.9,2.6c6.1,1.7,11.8,4.1,17,7.2c5.3,3.1,10.1,6.8,14.4,11.1
		c4.3,4.3,8,9.2,11.1,14.5s5.5,11,7.2,17s2.6,12.4,2.6,18.9c0,6.6-0.9,12.9-2.6,18.9s-4.1,11.7-7.2,16.9c-3.1,5.2-6.8,10-11.1,14.3
		c-4.3,4.3-9.2,8-14.4,11.1c-5.3,3.1-11,5.5-17,7.2s-12.4,2.5-18.9,2.5c-6.6,0-12.9-0.8-18.9-2.5s-11.7-4.1-17-7.2
		s-10.1-6.8-14.4-11.1c-4.3-4.3-8-9.1-11.1-14.3c-3.1-5.2-5.5-10.9-7.2-16.9S588.6,800.9,588.6,794.3z M624.6,794.2
		c0,5.1,0.9,10,2.6,14.4c1.7,4.4,4.2,8.4,7.3,11.7c3.1,3.3,6.8,5.9,11.1,7.8c4.3,1.9,9,2.8,14.1,2.8s9.9-0.9,14.2-2.8
		c4.3-1.9,8-4.5,11.1-7.8c3.1-3.3,5.6-7.2,7.3-11.7s2.6-9.3,2.6-14.4s-0.9-9.9-2.6-14.4s-4.2-8.4-7.3-11.8c-3.1-3.4-6.8-6-11.1-7.9
		c-4.3-1.9-9-2.9-14.2-2.9c-5.1,0-9.8,1-14.1,2.9c-4.3,1.9-8,4.6-11.1,7.9c-3.1,3.3-5.6,7.3-7.3,11.8
		C625.4,784.3,624.6,789.1,624.6,794.2z"/>
	<path class="st1" d="M747.1,794.3c0-6.6,0.8-12.9,2.5-18.9s4.1-11.7,7.2-17s6.8-10.1,11.1-14.5c4.3-4.3,9.1-8,14.4-11.1
		c5.3-3.1,10.9-5.5,17-7.2c6-1.7,12.4-2.6,18.9-2.6s12.8,0.9,18.9,2.6c6.1,1.7,11.8,4.1,17,7.2c5.3,3.1,10.1,6.8,14.4,11.1
		c4.3,4.3,8,9.2,11.1,14.5s5.5,11,7.2,17s2.6,12.4,2.6,18.9c0,6.6-0.9,12.9-2.6,18.9s-4.1,11.7-7.2,16.9c-3.1,5.2-6.8,10-11.1,14.3
		c-4.3,4.3-9.2,8-14.4,11.1c-5.3,3.1-11,5.5-17,7.2s-12.4,2.5-18.9,2.5c-6.6,0-12.9-0.8-18.9-2.5s-11.7-4.1-17-7.2
		s-10.1-6.8-14.4-11.1c-4.3-4.3-8-9.1-11.1-14.3c-3.1-5.2-5.5-10.9-7.2-16.9C748,807.2,747.1,800.9,747.1,794.3z M783.1,794.2
		c0,5.1,0.9,10,2.6,14.4c1.7,4.4,4.2,8.4,7.3,11.7c3.1,3.3,6.8,5.9,11.1,7.8c4.3,1.9,9,2.8,14.1,2.8s9.9-0.9,14.2-2.8
		c4.3-1.9,8-4.5,11.1-7.8c3.1-3.3,5.6-7.2,7.3-11.7s2.6-9.3,2.6-14.4s-0.9-9.9-2.6-14.4s-4.2-8.4-7.3-11.8c-3.1-3.4-6.8-6-11.1-7.9
		c-4.3-1.9-9-2.9-14.2-2.9c-5.1,0-9.8,1-14.1,2.9c-4.3,1.9-8,4.6-11.1,7.9c-3.1,3.3-5.6,7.3-7.3,11.8
		C784,784.3,783.1,789.1,783.1,794.2z"/>
	<path class="st1" d="M1031.7,794.3c0,6.6-0.8,12.8-2.5,18.7s-4.1,11.4-7.2,16.6c-3.1,5.1-6.8,9.8-11.1,13.9
		c-4.3,4.2-9.1,7.7-14.3,10.6c-5.2,2.9-10.9,5.2-17,6.7c-6.1,1.6-12.4,2.4-18.9,2.4h-45.8c-1.1,0-2.1-0.2-3-0.7s-1.3-1.5-1.3-3.2
		V729.4c0-1.3,0.4-2.4,1.1-3.2s1.8-1.2,3.2-1.2h45.8c6.5,0,12.8,0.8,18.8,2.4c6,1.6,11.7,3.9,16.9,6.9c5.2,3,10,6.5,14.4,10.7
		c4.3,4.2,8,8.8,11.1,14c3.1,5.1,5.5,10.7,7.2,16.6C1030.9,781.6,1031.7,787.8,1031.7,794.3z M946.6,758.4v71.5h7.8
		c1.4,0,2.8,0,4.2-0.1c1.4-0.1,2.7-0.2,4.1-0.3c4.6-0.4,9-1.5,13-3.4s7.5-4.4,10.6-7.4c3-3.1,5.4-6.7,7.1-10.8
		c1.7-4.2,2.6-8.7,2.6-13.6c0-5.2-1-10-2.9-14.4c-2-4.4-4.6-8.2-8-11.3c-3.3-3.2-7.3-5.7-11.8-7.4c-4.5-1.8-9.3-2.7-14.4-2.7h-12.3
		V758.4z"/>
	<path class="st1" d="M1056.4,729.2c0-1.1,0.3-2.1,1-2.9c0.7-0.8,1.7-1.2,3.1-1.2h27.3c0.9,0,1.9,0.4,3,1.1s1.6,1.7,1.6,3v129.9
		c0,2.7-1.5,4.1-4.6,4.1h-27.3c-2.7,0-4.1-1.4-4.1-4.1V729.2z"/>
	<path class="st1" d="M1122.3,729.4c0-1.3,0.4-2.3,1.1-3.1c0.7-0.8,1.7-1.2,3-1.2h92.3c1.4,0,2.4,0.4,3.2,1.2
		c0.7,0.8,1.1,1.9,1.1,3.2v23c0,1.1-0.4,2.1-1.1,3c-0.7,1-1.8,1.4-3.3,1.4h-60.3V780h46.5c1.2,0,2.2,0.3,2.9,0.8
		c0.8,0.6,1.2,1.5,1.2,2.8v20.1c0,0.9-0.3,1.7-1,2.5s-1.7,1.2-3,1.2h-46.6v23.8h62.5c2.8,0,4.2,1.4,4.2,4.3v23.4
		c0,0.6-0.2,1.2-0.7,1.7c-0.2,1.7-1.5,2.6-3.8,2.6h-94c-1.2,0-2.2-0.3-3-1c-0.7-0.7-1.1-1.7-1.1-3L1122.3,729.4L1122.3,729.4z"/>
</g>
<g>
	<path d="M223.2,559.5c-16.1,0-36.6-2.5-94.4-2.5c-38.3,0-74,2.5-87.6,2.5c-5.1-3.4-5.9-29.8-0.8-34c17.9-2.5,28-5.1,38.3-8.5
		c12.8-3.4,14.5-10.2,15.3-26.4c1.7-21.3,1.7-68,1.7-113.1v-85c0-4.3-1.7-13.6-7.6-18.7c-9.4-10.2-26.4-16.1-45.1-23.8
		c-3.4-5.1,0-23,5.1-26.4c27.2-0.9,86.7-12.8,122.4-25.5v153.9c0,46.8,0,101.2,0.9,137.7c0,13.6,4.3,23.8,17,28.1
		c12.8,3.4,17,4.3,39.1,7.6C230.8,530.7,228.3,555.3,223.2,559.5z M156,126c-4.3,3.4-39.1,6-44.2,2.5c-13.6-8.5-21.3-19.5-26.4-39.1
		c-0.9-4.3,0-25.5,5.1-29.8c8.5-7.7,29.8-17.9,47.6-17.9c15.3,0,24.6,4.3,27.2,7.6c4.3,6,9.4,18.7,9.4,28.1
		C174.7,94.6,168.8,115,156,126z"/>
	<path d="M511.3,307.1c-4.3,4.3-26.4,5.1-30.6,1.7c-6.8-35.7-12.8-51.9-28.1-62.9c-10.2-7.7-24.6-13.6-45.1-13.6
		c-29.8,0-51.9,19.5-51.9,46.8c0,28.9,17.9,45.9,85,74c73.1,30.6,92.7,62.1,92.7,105.4c0,65.5-62.1,108.8-143.7,108.8
		c-35.7,0-76.5-8.5-94.4-17c-6.8-19.5-16.1-75.7-17-97.8c3.4-4.3,27.2-12.8,32.3-10.2c12.8,40,27.2,62.1,49.3,76.5
		c12.8,6.8,32.3,11.9,46.8,11.9c35.7,0,54.4-17.9,54.4-43.4c0-28.9-15.3-45-74.8-71.4c-67.2-30.6-96.9-62-96.9-110.5
		c0-54.4,44.2-105.4,133.5-105.4c23,0,47.6,3.4,62.1,5.9c15.3,2.6,28.1,5.1,36.6,6C517.2,236.5,513.8,268.8,511.3,307.1z"/>
	<path d="M776.5,284.1c-13.6-21.3-39.9-31.5-62.9-31.5s-35.7,6-38.3,8.5c-10.2,8.5-23.8,37.4-35.7,61.2c-3.4,4.3-34-10.2-32.3-17.9
		c3.4-14.5,17-53.6,23.8-58.7c36.6-23.8,93.5-45.9,115.6-45.9c40,0,70.6,18.7,89.3,46.8c16.2,26.4,21.3,51.9,21.3,85.9
		c0,43.4-3.4,109.7-3.4,145.4c0,19.6,7.7,31.5,33.2,31.5c12.8,0,19.6-1.7,30.6-4.3c0.8,4.3-0.9,29.8-4.3,33.2
		c-20.4,20.4-52.7,28.9-74,28.9c-26.3,0-41.6-11.9-46.8-24.7c-3.4-5.1-5.1-12.8-6.8-18.7c0-0.8-3.4-1.7-4.3-0.8
		c-48.5,29.8-79.9,44.2-106.3,44.2c-16.1,0-34-10.2-48.5-23.8c-18.7-19.6-29.8-46.8-29.8-76.5c0-23.8,16.2-51,19.6-54.4
		c32.3-16.2,128.4-36.5,163.2-54.4c1.7-0.9,5.1-6,6-8.5c1.7-5.1,1.7-12.8,1.7-14.5C787.5,319,786.7,300.3,776.5,284.1z M780.7,391.2
		c-23.8,9.3-78.2,25.5-97.8,36.5c-4.3,1.7-10.2,17.9-10.2,28.1c0,31.4,22.1,55.3,59.5,55.3c10.2,0,29.8-5.1,40.8-13.6
		c7.6-5.1,9.3-11.1,11-21.3c1.7-11.1,1.7-65.5,1.7-80.8C785.8,394.6,783.3,390.4,780.7,391.2z"/>
	<path d="M1138.6,284.1c-13.6-21.3-40-31.5-62.9-31.5s-35.7,6-38.3,8.5c-10.2,8.5-23.8,37.4-35.7,61.2c-3.4,4.3-34-10.2-32.3-17.9
		c3.4-14.5,17-53.6,23.8-58.7c36.5-23.8,93.5-45.9,115.6-45.9c40,0,70.6,18.7,89.3,46.8c16.2,26.4,21.3,51.9,21.3,85.9
		c0,43.4-3.4,109.7-3.4,145.4c0,19.6,7.7,31.5,33.2,31.5c12.8,0,19.6-1.7,30.6-4.3c0.8,4.3-0.9,29.8-4.3,33.2
		c-20.4,20.4-52.7,28.9-74,28.9c-26.3,0-41.6-11.9-46.8-24.7c-3.4-5.1-5.1-12.8-6.8-18.7c0-0.8-3.4-1.7-4.3-0.8
		c-48.5,29.8-79.9,44.2-106.3,44.2c-16.2,0-34-10.2-48.5-23.8c-18.7-19.6-29.8-46.8-29.8-76.5c0-23.8,16.1-51,19.5-54.4
		c32.3-16.2,128.4-36.5,163.2-54.4c1.7-0.9,5.1-6,6-8.5c1.7-5.1,1.7-12.8,1.7-14.5C1149.6,319,1148.8,300.3,1138.6,284.1z
		 M1142.8,391.2c-23.8,9.3-78.2,25.5-97.8,36.5c-4.3,1.7-10.2,17.9-10.2,28.1c0,31.4,22.1,55.3,59.5,55.3c10.2,0,29.8-5.1,40.8-13.6
		c7.6-5.1,9.3-11.1,11-21.3c1.7-11.1,1.7-65.5,1.7-80.8C1147.9,394.6,1145.4,390.4,1142.8,391.2z"/>
	<path d="M1485.4,567.2c-56.1,0-99.5-21.3-128.4-61.2c-22.1-30.6-34-72.3-34-116.5c0-65.5,30.6-119,89.3-153.9
		c40.8-25.5,87.6-35.7,110.5-35.7c36.5,0,59.5,7.6,75.7,15.3c15.3,6.8,22.1,14.5,26.3,23c0.9,3.4,0,11.9-1.7,16.2
		c-6,15.3-23.8,36.6-32.3,40c-1.7,0.9-6.8,1.7-8.5,0.9c-21.3-19.6-54.4-48.5-98.6-48.5c-64.6,0-88.4,56.1-88.4,111.4
		c0,36.5,10.2,75.7,33.1,102c23,28,54.4,41.7,95.2,41.7c30.6,0,63.8-8.5,100.3-41.7c1.7,0.8,6,4.3,6,8.5c0,9.3-3.4,28.9-6,32.3
		C1584.8,550.2,1522.8,567.2,1485.4,567.2z"/>
</g>
<rect x="144" y="71" class="st2" width="44" height="2"/>
</svg>
